HIERARCHY
ROOT Hips
{
  OFFSET 0 0 0
  CHANNELS 6 Xposition Yposition Zposition Zrotation Yrotation Xrotation
  JOINT LeftThigh
  {
    OFFSET 8.409438 0 -5.917753
    CHANNELS 3 Zrotation Yrotation Xrotation
    JOINT LeftLeg
    {
      OFFSET 0 0 -42.358652
      CHANNELS 3 Zrotation Yrotation Xrotation
      JOINT LeftFoot
      {
        OFFSET 0 0 -39.357303
        CHANNELS 3 Zrotation Yrotation Xrotation
      }
    }
  }
  JOINT RightThigh
  {
    OFFSET -8.409438 0 -5.917753
    CHANNELS 3 Zrotation Yrotation Xrotation
    JOINT RightLeg
    {
      OFFSET 0 0 -42.358652
      CHANNELS 3 Zrotation Yrotation Xrotation
      JOINT RightFoot
      {
        OFFSET 0 0 -39.357303
        CHANNELS 3 Zrotation Yrotation Xrotation
      }
    }
  }
  JOINT SpineLow
  {
    OFFSET 0 0 4.719101
    CHANNELS 3 Zrotation Yrotation Xrotation
    JOINT SpineMid
    {
      OFFSET 0 0 12.899191
      CHANNELS 3 Zrotation Yrotation Xrotation
      JOINT Chest
      {
        OFFSET 0 0 12.899191
        CHANNELS 3 Zrotation Yrotation Xrotation
        JOINT LeftShoulder
        {
          OFFSET 7.550562 1.41573 9.438202
          CHANNELS 3 Zrotation Yrotation Xrotation
          JOINT LeftArm
          {
            OFFSET 9.155056 0 4.247191
            CHANNELS 3 Zrotation Yrotation Xrotation
            JOINT LeftForearm
            {
              OFFSET 0 0 25.771955
              CHANNELS 3 Zrotation Yrotation Xrotation
              JOINT LeftHand
              {
                OFFSET 0 0 25.197169
                CHANNELS 3 Zrotation Yrotation Xrotation
              }
            }
          }
        }
        JOINT RightShoulder
        {
          OFFSET -7.550562 1.41573 9.438202
          CHANNELS 3 Zrotation Yrotation Xrotation
          JOINT RightArm
          {
            OFFSET -9.155056 0 4.247191
            CHANNELS 3 Zrotation Yrotation Xrotation
            JOINT RightForearm
            {
              OFFSET 0 0 -25.771955
              CHANNELS 3 Zrotation Yrotation Xrotation
              JOINT RightHand
              {
                OFFSET 0 0 -25.197169
                CHANNELS 3 Zrotation Yrotation Xrotation
              }
            }
          }
        }
        JOINT Neck
        {
          OFFSET 0 0 15.101124
          CHANNELS 3 Zrotation Yrotation Xrotation
          JOINT Head
          {
            OFFSET 0 0 11.325843
            CHANNELS 3 Zrotation Yrotation Xrotation
            End Site
            {
              OFFSET 0 0 14.157303
            }
          }
        }
      }
    }
  }
}
MOTION
Frames: 7
Frame Time: 0.0
0.0  93.25843  0.0  9.969129  -3.521182  -111.901371  33.988063  -16.991028  -86.446436  16.140188  26.071093  112.130476  8.559148  -1.075788  1.067996  -14.590604  4.367005  3.368345  7.978634  11.031389  23.30456  8.569437  4.281696  1.627637  1.168431  0.64726  2.915905  3.267039  1.625049  8.000971  3.267039  1.62505  8.000972  -28.288541  22.349464  1.472754  -171.196144  65.035936  -108.033196  -37.822121  10.529844  81.367834  41.224472  -36.497464  11.108425  2.267657  -12.306824  18.089559  110.546526  38.772415  45.260395  -10.696817  -15.244701  -117.957015  58.298358  1.740838  -9.013993  -1.083518  2.842194  7.997333  -0.849867  2.117907  6.001832  
0.0  93.25843  0.0  10.887973  -4.522248  -113.159316  36.647868  -16.940106  -90.200869  16.253211  26.467422  109.471224  8.903578  -2.303859  0.26491  -14.132057  5.506933  4.310849  8.267064  11.077832  23.56111  8.493315  4.428101  1.432057  1.283213  0.728236  3.042597  3.593538  1.825023  8.354563  3.593538  1.825023  8.354562  -27.970568  22.327731  1.577944  -171.436108  64.986056  -108.169994  -38.181603  10.855125  80.88795  41.079675  -36.581896  11.233794  2.294177  -12.359113  18.184098  110.443593  39.040825  45.114945  -10.075057  -15.558438  -118.323862  57.997808  1.76179  -9.154793  -0.752663  2.94254  8.313496  -0.604568  2.197154  6.237386  
0.0  93.25843  0.0  11.851853  -5.059455  -114.401178  38.701061  -17.031753  -93.154627  16.230116  26.597943  105.79743  9.293747  -3.586356  -0.619659  -12.85825  6.466211  5.512861  7.895607  11.221526  23.703865  8.42027  4.503652  1.327641  1.337883  0.83148  3.172047  3.759864  2.092178  8.716137  3.759864  2.092178  8.716137  -27.70415  22.320008  1.660125  -171.402955  64.994214  -108.289217  -38.48494  11.278779  80.595464  40.883167  -36.695145  11.510465  2.470556  -12.51401  18.288094  110.32434  39.27034  45.066327  -9.417035  -15.958988  -118.733502  57.664312  1.911651  -9.283739  -0.524649  3.053852  8.532064  -0.436168  2.283595  6.40016  
0.0  93.25843  0.0  12.664917  -5.45132  -115.466993  40.514372  -16.943952  -95.725746  15.669926  26.376176  101.015883  9.442082  -4.929854  -1.333393  -11.199517  6.947677  6.714675  7.260762  11.470797  23.844544  8.108326  4.510117  1.215641  1.379586  0.884906  3.282881  3.884345  2.225707  9.023733  3.884345  2.225707  9.023734  -27.692097  22.566139  1.511166  -171.606198  65.210428  -108.342002  -38.854642  11.148247  80.186056  40.694569  -36.854015  11.795875  2.126628  -12.383728  18.15194  110.583334  39.222195  44.997775  -9.042716  -16.352915  -119.021229  57.587381  2.129475  -9.03304  -0.35821  3.279631  8.729678  -0.315558  2.455202  6.547395  
0.0  93.25843  0.0  13.372827  -5.50216  -116.346096  41.582046  -16.294052  -97.619602  14.378801  25.585158  94.879391  9.171035  -6.428682  -1.712391  -9.819369  7.233315  7.821139  6.730702  11.792494  23.99788  7.774618  4.577817  1.157804  1.387902  0.950491  3.361998  3.91887  2.398586  9.244542  3.91887  2.398586  9.244542  -27.715834  22.761063  1.459865  -171.446436  65.414214  -108.337489  -38.9902  10.970671  80.076856  40.629219  -37.0973  11.881003  2.119576  -12.491179  18.415052  110.689447  39.449185  45.112514  -8.740456  -16.682913  -119.327629  57.284117  2.400244  -9.17665  -0.29088  3.444044  8.928166  -0.268536  2.579438  6.695748  
0.0  93.25843  0.0  13.839123  -5.371034  -117.099251  41.944819  -15.277466  -98.885325  12.346919  24.354412  87.508505  8.559601  -7.852293  -1.749454  -9.152219  7.462252  8.594551  6.702162  12.136586  24.391925  7.332054  4.60178  1.073539  1.357178  0.971329  3.45443  3.841251  2.454203  9.497505  3.84125  2.454203  9.497505  -27.808185  23.055903  1.204683  -171.032194  65.605645  -108.077735  -38.97205  10.646532  80.057491  40.738054  -37.362491  11.756142  2.135369  -12.45017  18.521393  110.751856  39.709542  45.200618  -8.601013  -16.866121  -119.530884  56.957705  2.700042  -9.269585  -0.245129  3.691978  9.008626  -0.238339  2.766084  6.755612  
0.0  93.25843  0.0  14.098499  -5.016271  -117.714309  41.457406  -13.906472  -99.336225  9.616145  22.884285  79.005898  7.789999  -9.076226  -1.587944  -9.503228  7.82711  8.941091  6.970658  12.400576  24.911729  7.202977  4.795345  1.052044  1.294391  0.975006  3.525014  3.672995  2.469248  9.688491  3.672995  2.469248  9.688491  -27.924518  23.369431  1.08969  -170.302375  65.806146  -107.416892  -38.990177  10.271329  80.003658  40.791445  -37.573346  11.586942  2.147737  -12.367497  18.705529  110.690858  40.046802  45.153279  -8.393617  -16.996912  -119.659424  56.574537  3.068562  -9.274816  -0.243207  3.922805  9.072356  -0.240718  2.939262  6.803169  
